<?xml version="1.0" encoding="UTF-8"?>
<svg id="Capa_1" data-name="Capa 1" xmlns="http://www.w3.org/2000/svg" viewBox="0 0 1297.32 421.65">
  <defs>
    <style>
      .cls-1 {
        fill: #e84586;
      }

      .cls-1, .cls-2, .cls-3, .cls-4, .cls-5, .cls-6, .cls-7 {
        stroke-width: 0px;
      }

      .cls-2 {
        fill: #e7357d;
      }

      .cls-3 {
        fill: #000;
      }

      .cls-4 {
        fill: #e61f67;
      }

      .cls-5 {
        fill: #eb649f;
      }

      .cls-6 {
        fill: #ce1b56;
      }

      .cls-7 {
        fill: #b9174a;
      }
    </style>
  </defs>
  <path class="cls-3" d="M431.43,100.15c-13.86,0-25.67,3.75-36.09,11.47-3.89,2.92-7.05,5.96-9.59,9.26v-15.4c0-1.39-1.13-2.5-2.51-2.5h-24.96c-1.39,0-2.5,1.12-2.5,2.5v191.69c0,1.3,1.42,2.11,2.53,1.43l25.83-15.63c1.01-.6,1.62-1.69,1.62-2.86v-57.82c2.54,3.3,5.7,6.34,9.6,9.27,10.41,7.71,22.22,11.46,36.08,11.46,16.97,0,32.98-7.18,45.1-20.21,12.43-13.38,19.29-31.57,19.29-51.22s-6.86-37.84-19.29-51.22c-12.12-13.03-28.13-20.21-45.1-20.21M465.82,171.58c0,24.43-17.22,42.86-40.04,42.86s-40.03-18.43-40.03-42.86,17.21-42.86,40.03-42.86,40.04,18.43,40.04,42.86"/>
  <path class="cls-3" d="M588.06,100.15c-40.06,0-71.43,31.38-71.43,71.43s31.37,71.43,71.43,71.43,71.43-31.37,71.43-71.43-31.38-71.43-71.43-71.43M588.06,214.44c-24.02,0-41.45-18.03-41.45-42.86s17.43-42.86,41.45-42.86,41.45,18.03,41.45,42.86-17.43,42.86-41.45,42.86"/>
  <path class="cls-3" d="M846.29,100.15c-14.05,0-26.38,3.85-36.67,11.48-4.35,3.49-7.61,6.89-9.92,10.38-2.6-3.69-5.74-7.08-9.56-10.36-6.29-5.25-17.08-11.5-32.73-11.5-12,0-22.16,3.76-31.08,11.52-3.11,2.86-5.6,5.74-7.55,8.72v-14.92c0-1.39-1.13-2.51-2.51-2.51h-24.96c-1.39,0-2.51,1.13-2.51,2.51v132.2c0,1.39,1.13,2.5,2.51,2.5h24.96c1.39,0,2.51-1.12,2.51-2.5v-73.16c0-21.08,12.97-35.8,31.57-35.8,16.61,0,27.34,11.84,27.34,30.16v78.8c0,1.39,1.13,2.5,2.51,2.5h24.97c1.39,0,2.5-1.12,2.5-2.5v-73.16c0-21.08,12.98-35.8,31.57-35.8,16.62,0,27.34,11.84,27.34,30.16v78.8c0,1.39,1.12,2.5,2.5,2.5h24.97c1.39,0,2.5-1.12,2.5-2.5v-78.8c0-17.1-5.14-31.87-14.86-42.74-9.23-10.32-21.8-16-35.4-16"/>
  <path class="cls-3" d="M1039.39,198.53c-.98-1.11-2.69-1.13-3.71-.06-2.52,2.63-5.43,5.01-8.69,7.1-6.08,4.05-15.92,8.88-28.3,8.88-10.66,0-20.35-3.4-28-9.84-6.88-5.79-11.57-13.66-13.27-22.25h102.67c.83,0,1.54-.62,1.65-1.44l.47-3.3c.07-.52.13-1.08.2-1.67.3-2.3.66-5.17.66-8.59,0-38.93-28.27-67.2-67.2-67.2-18.73,0-36.31,7.37-49.49,20.73-13.24,13.43-20.53,31.44-20.53,50.71,0,40.06,31.37,71.43,71.42,71.43,16.61,0,31.08-4.2,44.23-12.85,5.18-3.36,9.54-7.12,12.97-11.21.79-.95.78-2.34-.04-3.27l-15.05-17.16ZM957.57,156.59c4.47-13.63,14.74-29.28,38.3-29.28,17.97,0,30.88,10.65,35.56,29.28h-73.86Z"/>
  <path class="cls-3" d="M1096.29,240.2h24.97c1.39,0,2.5-1.13,2.5-2.51V43.17c0-1.3-1.41-2.1-2.52-1.43l-25.83,15.41c-1.01.6-1.64,1.69-1.64,2.87v177.67c0,1.39,1.13,2.51,2.51,2.51"/>
  <path class="cls-3" d="M1225.89,100.15c-40.06,0-71.44,31.37-71.44,71.43s31.38,71.43,71.44,71.43,71.42-31.38,71.42-71.43-31.37-71.43-71.42-71.43M1267.34,171.58c0,24.83-17.43,42.86-41.45,42.86s-41.46-18.03-41.46-42.86,17.44-42.86,41.46-42.86,41.45,18.03,41.45,42.86"/>
  <path class="cls-2" d="M159.55,331.92l127.52-73.7c2.24-1.29,2.23-4.52,0-5.8l-127.52-73.51c-2.24-1.28-5.03.32-5.03,2.9v147.21c0,2.58,2.79,4.2,5.03,2.9"/>
  <path class="cls-6" d="M286.99,73.96L159.68.53c-2.24-1.29-5.03.32-5.03,2.9v147.09c0,2.59,2.79,4.2,5.03,2.9l127.31-73.67c2.24-1.29,2.24-4.52,0-5.8"/>
  <path class="cls-5" d="M132.33,341.72L5.03,268.3c-2.24-1.29-5.03.32-5.03,2.9v147.09c0,2.59,2.79,4.2,5.03,2.9l127.31-73.67c2.24-1.29,2.24-4.52,0-5.8"/>
  <path class="cls-7" d="M138.23.46L10.78,74.12c-2.23,1.29-2.23,4.52,0,5.8l127.45,73.48c2.24,1.28,5.03-.32,5.03-2.9V3.36c0-2.58-2.79-4.2-5.03-2.9"/>
  <path class="cls-1" d="M10.85,258.45l127.25,73.39c2.24,1.28,5.03-.32,5.03-2.9v-147.04c0-2.58-2.8-4.19-5.03-2.89L10.85,252.65c-2.24,1.29-2.24,4.52,0,5.8"/>
  <path class="cls-4" d="M297.59,239.6l-.06-147.12c0-2.58-2.8-4.19-5.03-2.89l-127.32,73.68c-2.23,1.29-2.23,4.51,0,5.8l127.38,73.43c2.24,1.29,5.03-.32,5.03-2.9"/>
</svg>